# xmcd
#
# Track frame offsets:
#	150
#	15917
#	40238
#
# Disc length: 826 seconds
#
# Revision: 1
# Processed by: cddbd v1.4PL0 Copyright (c) Steve Scherf et al.
# Submitted via: EasyCDDAExtractor 6.0.0.1
#
DISCID=15033803
DTITLE=BB King
DYEAR=2003
DGENRE=Blues
TTITLE0=I Love You
TTITLE1=The Thrill Is Gone
TTITLE2=I'll Survive
EXTD=
EXTT0=
EXTT1=
EXTT2=
PLAYORDER=
